HIERARCHY
ROOT Hips
{
	OFFSET -0.001795 -0.223333 0.028219
	CHANNELS 6 Xposition Yposition Zposition Zrotation Yrotation Xrotation
	JOINT LeftUpLeg
	{
		OFFSET 0.069520 -0.091406 -0.006815
		CHANNELS 3 Zrotation Yrotation Xrotation
		JOINT LeftLeg
		{
			OFFSET 0.034277 -0.375199 -0.004496
			CHANNELS 3 Zrotation Yrotation Xrotation
			JOINT LeftFoot
			{
				OFFSET -0.013596 -0.397961 -0.043693
				CHANNELS 3 Zrotation Yrotation Xrotation
				JOINT LeftToe
				{
					OFFSET 0.026358 -0.055791 0.119288
					CHANNELS 3 Zrotation Yrotation Xrotation
					End Site
					{
						OFFSET 0.000000 0.000000 0.000000
					}
				}
			}
		}
	}
	JOINT RightUpLeg
	{
		OFFSET -0.067670 -0.090522 -0.004320
		CHANNELS 3 Zrotation Yrotation Xrotation
		JOINT RightLeg
		{
			OFFSET -0.038290 -0.382569 -0.008850
			CHANNELS 3 Zrotation Yrotation Xrotation
			JOINT RightFoot
			{
				OFFSET 0.015774 -0.398415 -0.042312
				CHANNELS 3 Zrotation Yrotation Xrotation
				JOINT RightToe
				{
					OFFSET -0.025372 -0.048144 0.123348
					CHANNELS 3 Zrotation Yrotation Xrotation
					End Site
					{
						OFFSET 0.000000 0.000000 0.000000
					}
				}
			}
		}
	}
	JOINT Spine
	{
		OFFSET -0.002533 0.108963 -0.026696
		CHANNELS 3 Zrotation Yrotation Xrotation
		JOINT Spine1
		{
			OFFSET 0.005487 0.135180 0.001092
			CHANNELS 3 Zrotation Yrotation Xrotation
			JOINT Spine2
			{
				OFFSET 0.001457 0.052922 0.025425
				CHANNELS 3 Zrotation Yrotation Xrotation
				JOINT Neck
				{
					OFFSET -0.002778 0.213870 -0.042857
					CHANNELS 3 Zrotation Yrotation Xrotation
					JOINT Head
					{
						OFFSET 0.005152 0.064970 0.051349
						CHANNELS 3 Zrotation Yrotation Xrotation
						End Site
						{
							OFFSET 0.000000 0.000000 0.000000
						}
					}
				}
				JOINT LeftShoulder
				{
					OFFSET 0.078845 0.121749 -0.034090
					CHANNELS 3 Zrotation Yrotation Xrotation
					JOINT LeftArm
					{
						OFFSET 0.090977 0.030469 -0.008868
						CHANNELS 3 Zrotation Yrotation Xrotation
						JOINT LeftForeArm
						{
							OFFSET 0.259612 -0.012772 -0.027456
							CHANNELS 3 Zrotation Yrotation Xrotation
							JOINT LeftHand
							{
								OFFSET 0.249234 0.008986 -0.001171
								CHANNELS 3 Zrotation Yrotation Xrotation
								End Site
								{
									OFFSET 0.000000 0.000000 0.000000
								}
							}
						}
					}
				}
				JOINT RightShoulder
				{
					OFFSET -0.081759 0.118833 -0.038615
					CHANNELS 3 Zrotation Yrotation Xrotation
					JOINT RightArm
					{
						OFFSET -0.096012 0.032551 -0.009143
						CHANNELS 3 Zrotation Yrotation Xrotation
						JOINT RightForeArm
						{
							OFFSET -0.253742 -0.013329 -0.021401
							CHANNELS 3 Zrotation Yrotation Xrotation
							JOINT RightHand
							{
								OFFSET -0.255298 0.007772 -0.005559
								CHANNELS 3 Zrotation Yrotation Xrotation
								End Site
								{
									OFFSET 0.000000 0.000000 0.000000
								}
							}
						}
					}
				}
			}
		}
	}
}
MOTION
Frames: 13
Frame Time: 0.050000
0.591455 0.384480 1.731302 -19.878662 -0.797305 37.944215 23.553850 15.467274 -82.374823 -69.913207 69.793012 79.261015 36.155088 37.954196 49.792775 0.000000 0.000000 0.000000 -26.330252 -0.882852 -36.259771 -0.394285 4.095772 89.439552 0.457169 -5.885167 17.270047 0.000000 0.000000 0.000000 -13.552251 8.877005 63.206220 8.114145 -0.365436 -30.784439 13.709189 18.960242 26.874653 2.643601 2.891542 -50.005190 0.000000 0.000000 0.000000 21.259122 -30.440133 8.925375 -2.601526 -46.056788 -6.595545 92.949690 -49.064597 -52.685594 0.000000 0.000000 0.000000 -19.984121 32.138964 6.939101 6.385862 44.226483 1.757434 -101.544692 15.720973 -3.636746 0.000000 0.000000 0.000000
0.590784 0.386306 1.729640 -17.576448 0.715052 38.157880 27.070178 16.980292 -82.249668 -79.627031 70.817334 69.974151 39.687741 40.442984 48.115882 0.000000 0.000000 0.000000 -27.414692 -1.395315 -34.601687 -0.896746 3.167285 87.320705 0.845856 -4.983494 16.681790 0.000000 0.000000 0.000000 -13.459813 7.768767 62.184282 8.617329 -0.486826 -30.245331 13.130753 19.069929 26.590400 2.575948 2.963518 -50.037567 0.000000 0.000000 0.000000 20.170209 -32.341864 9.343893 -3.645551 -45.644912 -6.202829 102.247173 -51.839072 -63.324047 0.000000 0.000000 0.000000 -17.214718 32.940876 8.306964 13.581652 42.702761 3.775428 -108.088033 19.729804 -9.171617 0.000000 0.000000 0.000000
0.590164 0.389242 1.727434 -14.880509 2.369457 37.554763 30.091239 17.898939 -82.479105 -75.018928 71.225131 75.007069 40.122679 42.690655 41.116290 0.000000 0.000000 0.000000 -28.903244 -2.155680 -33.498023 -0.835630 1.620082 87.457024 0.118311 -5.959679 15.655465 0.000000 0.000000 0.000000 -13.477621 6.834144 62.601481 8.452146 -0.451160 -30.325703 12.667957 17.179097 25.869733 1.185018 3.147105 -51.232254 0.000000 0.000000 0.000000 19.617948 -32.055152 9.293667 -6.384239 -46.916764 -5.224057 112.938388 -53.504295 -74.443678 0.000000 0.000000 0.000000 -15.773570 31.830229 8.427042 20.233184 42.309481 5.675525 -113.411195 23.025470 -15.231347 0.000000 0.000000 0.000000
0.589174 0.393114 1.724989 -13.359808 2.809798 37.286791 34.014852 20.557791 -82.098641 -70.518762 71.330996 79.610967 34.931076 42.488515 29.249015 0.000000 0.000000 0.000000 -30.938703 -3.012554 -34.241734 -0.303578 0.344058 88.095954 0.026688 -6.374210 16.514728 0.000000 0.000000 0.000000 -14.040847 6.773738 61.425158 8.283740 -0.480896 -29.671800 12.409241 16.401676 24.874562 2.894151 2.751937 -51.547871 0.000000 0.000000 0.000000 20.459734 -31.852905 9.127794 -8.744489 -47.955459 -4.393649 122.254258 -53.355571 -83.882846 0.000000 0.000000 0.000000 -12.955803 31.614885 9.444410 24.290760 41.778732 6.599972 -118.166263 25.143918 -20.258982 0.000000 0.000000 0.000000
0.587960 0.396488 1.722575 -11.944811 3.540247 35.511890 36.114897 21.805646 -83.005367 -74.420929 70.863433 74.851121 35.462687 45.085209 22.666636 0.000000 0.000000 0.000000 -32.684911 -3.936024 -34.407847 -0.050333 -0.634908 90.411028 -0.168029 -6.475643 15.518253 0.000000 0.000000 0.000000 -14.449059 6.559583 61.997257 8.409063 -0.571404 -28.959186 12.406174 16.006805 23.246748 3.561644 2.633278 -50.745323 0.000000 0.000000 0.000000 16.735924 -33.440764 9.844839 -12.146685 -46.251816 -2.823143 129.396941 -54.069895 -93.098768 0.000000 0.000000 0.000000 -9.849840 32.028718 10.784318 25.065215 40.087131 6.082206 -122.083843 27.254522 -25.860823 0.000000 0.000000 0.000000
0.586751 0.403547 1.720930 -10.942979 3.823228 33.571061 37.177762 22.374832 -83.317554 -79.320012 70.056685 68.923134 34.769251 48.357963 12.904604 0.000000 0.000000 0.000000 -33.854277 -4.874928 -35.626714 -0.121173 -0.643853 92.841169 -0.197853 -6.480332 15.192126 0.000000 0.000000 0.000000 -14.774845 6.432672 61.542173 8.101736 -0.550035 -28.709337 12.802646 15.420586 22.485507 5.181345 2.236287 -50.083145 0.000000 0.000000 0.000000 14.671778 -33.657636 10.079872 -18.150409 -45.417290 -0.662482 138.338499 -54.226701 -105.027408 0.000000 0.000000 0.000000 -7.163115 32.163172 11.759636 24.856524 39.616374 5.584514 -123.911281 28.543616 -29.575797 0.000000 0.000000 0.000000
0.585738 0.412552 1.720047 -10.873397 3.568481 31.666389 37.608126 23.373104 -84.534456 -78.565778 68.608505 68.222801 34.777108 51.087620 7.804462 0.000000 0.000000 0.000000 -35.106963 -5.228590 -35.171624 0.903350 -1.779385 92.892917 -1.046789 -7.541760 13.517789 0.000000 0.000000 0.000000 -15.324887 6.695894 60.741551 8.569329 -0.671891 -28.377980 13.053512 15.412547 21.194134 5.663342 2.110381 -49.439051 0.000000 0.000000 0.000000 8.654421 -33.870945 10.804533 -23.502189 -41.755424 1.150019 148.530199 -55.452984 -121.587349 0.000000 0.000000 0.000000 -3.312696 32.998670 13.602674 21.664208 39.302397 4.205510 -126.083464 31.682257 -36.992982 0.000000 0.000000 0.000000
0.584600 0.426860 1.719996 -11.074581 3.110668 30.253251 37.969977 24.167723 -84.882917 -72.627216 66.622057 72.270081 31.118546 51.987879 -1.660265 0.000000 0.000000 0.000000 -35.099812 -5.078168 -34.689426 1.903986 -2.619220 90.921346 -2.596136 -10.203399 12.824626 0.000000 0.000000 0.000000 -15.596912 6.847636 59.487454 8.628710 -0.613017 -29.035062 13.432024 14.485732 20.520272 5.604974 1.977733 -47.209674 0.000000 0.000000 0.000000 3.710755 -33.510089 11.314755 -27.421434 -38.370013 2.177522 156.043012 -57.006856 -134.581687 0.000000 0.000000 0.000000 -0.106199 34.587316 15.484801 18.561040 40.565572 3.183633 -126.340627 34.294416 -42.527736 0.000000 0.000000 0.000000
0.582820 0.446739 1.720272 -11.594318 2.751758 28.747565 37.008166 23.690769 -85.285110 -64.165700 63.230385 77.880557 28.304308 51.213348 -6.215769 0.000000 0.000000 0.000000 -35.014284 -4.665529 -33.054602 3.503324 -3.988275 87.237868 -3.890350 -12.240796 11.007642 0.000000 0.000000 0.000000 -15.815219 6.932253 58.422732 8.708098 -0.621789 -29.166239 13.485607 14.688105 19.161408 6.638401 1.645662 -45.521961 0.000000 0.000000 0.000000 1.285647 -32.907026 11.307277 -30.903833 -34.574757 2.605733 162.007236 -57.005160 -145.239285 0.000000 0.000000 0.000000 0.077025 35.024752 15.726150 17.207678 42.966527 3.199208 -125.439246 36.777342 -45.974055 0.000000 0.000000 0.000000
0.580269 0.469910 1.720486 -12.119924 2.160032 27.111645 37.334591 23.822385 -83.964521 -59.200984 59.815773 79.789412 25.790758 50.511300 -10.473675 0.000000 0.000000 0.000000 -33.113472 -4.001486 -32.502960 4.332484 -4.161772 85.168016 -6.082213 -16.248953 9.491088 0.000000 0.000000 0.000000 -16.399843 7.159505 56.037979 9.145623 -0.644256 -29.650784 13.709890 13.994945 18.960074 6.452827 1.540388 -44.029505 0.000000 0.000000 0.000000 -1.663356 -31.446319 11.094099 -32.945898 -32.636527 2.828329 168.035532 -57.458382 -155.611980 0.000000 0.000000 0.000000 2.310662 36.120330 17.010089 15.152466 46.719525 2.812656 -122.625057 41.224111 -50.990972 0.000000 0.000000 0.000000
0.577309 0.495303 1.720533 -11.864273 3.189375 25.409185 37.195993 22.309037 -83.194875 -56.592058 56.320756 78.716487 25.317340 50.108699 -10.637485 0.000000 0.000000 0.000000 -31.057708 -3.573843 -30.810933 4.960709 -5.000378 82.997773 -7.878944 -19.636868 8.398038 0.000000 0.000000 0.000000 -16.416083 6.444215 53.910504 8.858920 -0.640657 -29.284550 13.319681 12.044024 17.602131 5.794617 1.533788 -42.900375 0.000000 0.000000 0.000000 -1.847444 -30.805754 11.022182 -34.546709 -32.244364 3.202407 173.570394 -57.369763 -164.621481 0.000000 0.000000 0.000000 1.546691 37.018074 16.725374 15.446599 50.148765 3.397190 -117.742635 42.904958 -50.021271 0.000000 0.000000 0.000000
0.574715 0.518994 1.720709 -12.387253 2.825356 23.423835 37.672374 21.959180 -80.930682 -54.280669 53.217295 77.904802 24.225895 48.166639 -9.558476 0.000000 0.000000 0.000000 -28.135105 -2.732053 -29.624993 5.096063 -4.463366 81.302434 -8.833191 -21.410205 9.862443 0.000000 0.000000 0.000000 -16.381281 6.193121 51.785305 8.193829 -0.485079 -30.001984 13.148637 9.721686 18.141523 5.602195 1.341432 -42.585852 0.000000 0.000000 0.000000 -2.086291 -28.807347 10.476387 -35.877074 -32.459248 3.519524 178.572767 -56.747821 -171.949437 0.000000 0.000000 0.000000 1.980532 38.284928 16.933943 14.538461 52.299996 3.052300 -114.115049 44.653309 -50.572584 0.000000 0.000000 0.000000
0.573590 0.541861 1.721808 -12.994180 2.687114 21.838434 36.896950 21.008456 -80.141479 -50.590253 49.856356 78.616803 24.176088 46.806233 -6.486529 0.000000 0.000000 0.000000 -26.513093 -2.265386 -28.521118 6.482930 -5.445959 78.945417 -9.985349 -23.576494 9.205877 0.000000 0.000000 0.000000 -16.136954 5.718925 49.052572 7.891413 -0.509859 -29.407022 12.272482 8.880149 17.669420 5.724890 1.226109 -42.308943 0.000000 0.000000 0.000000 -1.298707 -28.570157 10.324641 -38.477991 -33.363534 4.294809 -176.045738 -57.414870 178.558535 0.000000 0.000000 0.000000 1.651520 37.450750 16.172415 17.144506 54.703834 4.535894 -113.256200 46.662174 -52.864552 0.000000 0.000000 0.000000
